<?xml version="1.0" encoding="UTF-8"?>
<!-- Generator: visioncortex VTracer 0.6.12 -->
<svg version="1.1" xmlns="http://www.w3.org/2000/svg" width="1080" height="1080">
<path d="M0,0 L50,0 L78,2 L109,6 L137,11 L173,20 L202,29 L233,41 L262,54 L289,68 L314,83 L332,95 L350,108 L364,119 L377,130 L387,139 L395,146 L425,176 L432,184 L444,198 L457,215 L470,233 L480,248 L495,273 L508,297 L519,320 L530,347 L540,375 L548,403 L555,433 L561,469 L564,497 L565,513 L565,567 L562,603 L557,636 L551,665 L543,695 L532,728 L521,755 L509,781 L497,804 L482,829 L470,847 L457,865 L446,879 L435,892 L426,902 L419,910 L389,940 L381,947 L367,959 L350,972 L332,985 L317,995 L292,1010 L268,1023 L245,1034 L218,1045 L190,1055 L158,1064 L127,1071 L96,1076 L66,1079 L49,1080 L1,1080 L-38,1077 L-77,1071 L-108,1064 L-133,1057 L-163,1047 L-190,1036 L-216,1024 L-239,1012 L-264,997 L-282,985 L-300,972 L-314,961 L-327,950 L-337,941 L-345,934 L-375,904 L-382,896 L-394,882 L-407,865 L-420,847 L-430,832 L-445,807 L-458,783 L-469,760 L-480,733 L-490,705 L-498,677 L-505,647 L-511,611 L-514,583 L-515,567 L-515,513 L-512,477 L-507,444 L-501,415 L-493,385 L-482,352 L-471,325 L-459,299 L-447,276 L-432,251 L-420,233 L-407,215 L-396,201 L-385,188 L-376,178 L-369,170 L-339,140 L-331,133 L-317,121 L-300,108 L-282,95 L-267,85 L-242,70 L-218,57 L-195,46 L-168,35 L-140,25 L-112,17 L-82,10 L-53,5 L-16,1 Z " fill="#002C5B" transform="translate(515,0)"/>
<path d="M0,0 L34,0 L63,4 L67,5 L66,17 L60,35 L52,50 L40,58 L37,59 L35,65 L25,78 L14,87 L0,97 L-4,100 L-6,100 L-12,86 L-21,74 L-20,77 L-16,87 L-14,97 L-14,106 L-17,107 L-21,95 L-29,84 L-31,83 L-28,91 L-25,102 L-25,113 L-27,113 L-35,97 L-42,88 L-40,93 L-37,102 L-36,108 L-36,119 L-39,119 L-47,103 L-54,95 L-49,106 L-46,122 L-46,124 L-59,132 L-72,144 L-77,150 L-86,156 L-96,165 L-104,173 L-113,186 L-118,197 L-121,206 L-122,211 L-122,224 L-119,232 L-117,236 L-128,235 L-145,230 L-155,226 L-148,233 L-134,241 L-124,245 L-119,246 L-98,246 L-88,244 L-71,238 L-58,230 L-47,221 L-28,207 L-11,193 L3,182 L19,169 L35,157 L53,143 L72,130 L95,115 L120,100 L138,90 L163,80 L181,74 L203,70 L225,70 L229,71 L229,73 L221,80 L214,85 L197,89 L184,95 L182,95 L182,97 L166,105 L136,125 L117,139 L100,153 L86,165 L71,180 L63,187 L56,194 L47,205 L39,213 L32,221 L21,233 L14,241 L5,251 L-7,265 L-17,276 L-25,286 L-31,301 L-34,330 L-36,333 L-44,332 L-55,326 L-65,317 L-73,308 L-76,302 L-65,293 L-57,282 L-56,278 L-67,283 L-81,287 L-87,288 L-114,288 L-139,283 L-154,278 L-171,269 L-183,260 L-190,254 L-197,246 L-207,231 L-215,215 L-222,194 L-223,185 L-221,187 L-214,204 L-205,221 L-193,238 L-186,245 L-171,256 L-173,253 L-186,236 L-195,221 L-203,201 L-207,188 L-209,173 L-209,146 L-206,130 L-201,118 L-194,107 L-183,94 L-173,85 L-169,82 L-167,82 L-173,70 L-184,57 L-197,48 L-212,41 L-218,39 L-227,38 L-229,35 L-223,31 L-210,28 L-174,28 L-159,31 L-142,36 L-121,46 L-115,50 L-109,48 L-96,39 L-82,31 L-63,23 L-42,16 L-18,10 L-28,10 L-45,13 L-61,17 L-88,26 L-107,35 L-114,34 L-120,31 L-121,28 L-101,20 L-86,15 L-49,6 L-23,2 Z " fill="#005594" transform="translate(576,383)"/>
<path d="M0,0 L10,0 L6,4 L-5,13 L-15,24 L-24,30 L-34,39 L-42,47 L-51,60 L-56,71 L-59,80 L-60,85 L-60,102 L-66,100 L-74,93 L-80,83 L-82,73 L-82,60 L-78,48 L-72,37 L-63,27 L-54,19 L-40,11 L-29,6 L-8,1 Z " fill="#FABB7D" transform="translate(514,509)"/>
<path d="M0,0 L8,0 L2,7 L-3,11 L-9,14 L-23,17 L-36,23 L-38,23 L-38,25 L-54,33 L-84,53 L-103,67 L-120,81 L-134,93 L-149,108 L-157,115 L-164,122 L-173,133 L-181,141 L-188,149 L-199,161 L-206,169 L-215,179 L-227,193 L-237,204 L-241,208 L-239,203 L-224,181 L-208,160 L-194,143 L-182,129 L-167,113 L-134,80 L-126,73 L-116,64 L-105,55 L-87,41 L-66,27 L-48,17 L-29,8 L-10,2 Z " fill="#F2EAD2" transform="translate(796,455)"/>
<path d="M0,0 L10,3 L34,14 L44,20 L43,23 L26,35 L9,47 L3,46 L-21,40 L-21,31 L-19,24 L-14,14 L-5,4 Z " fill="#005594" transform="translate(563,510)"/>
<path d="M0,0 L2,2 L9,19 L18,36 L30,53 L37,60 L52,71 L54,72 L54,74 L60,76 L75,83 L93,89 L109,92 L142,92 L159,88 L176,81 L190,72 L190,75 L178,86 L165,94 L153,99 L136,103 L109,103 L84,98 L69,93 L52,84 L40,75 L33,69 L26,61 L16,46 L8,30 L1,9 Z " fill="#EEE7D0" transform="translate(353,568)"/>
<path d="M0,0 L11,0 L18,6 L21,15 L21,27 L17,36 L10,43 L-1,48 L-11,48 L-21,44 L-28,38 L-33,28 L-33,22 L-28,24 L-21,24 L-13,19 L-4,3 Z " fill="#F6EBD2" transform="translate(692,405)"/>
<path d="M0,0 L8,0 L5,9 L-2,17 L-10,21 L-14,22 L-28,22 L-44,21 L-59,19 L-59,16 L-44,10 L-23,4 L-7,1 Z " fill="#005594" transform="translate(336,489)"/>
<path d="M0,0 L1,0 L0,9 L-4,16 L-12,23 L-21,27 L-31,27 L-38,24 L-40,23 L-38,19 L-34,15 L-26,12 L-12,10 L-4,6 Z " fill="#D21949" transform="translate(712,426)"/>
<path d="M0,0 L1,2 L-6,12 L-10,17 L-21,26 L-35,36 L-39,39 L-41,39 L-44,32 L-44,28 L-25,16 Z " fill="#F3B77D" transform="translate(611,444)"/>
<path d="M0,0 L12,0 L9,3 L2,9 L-4,21 L-9,26 L-15,26 L-21,21 L-19,14 L-10,4 Z " fill="#F3E5CD" transform="translate(680,398)"/>
<path d="M0,0 L4,5 L11,9 L20,11 L20,12 L6,14 L1,17 L-1,17 L-3,21 L-5,23 L-12,17 L-17,7 L-17,1 L-12,3 L-5,3 Z " fill="#F8B87F" transform="translate(676,426)"/>
<path d="M0,0 L7,1 L14,6 L12,7 L1,7 L-4,12 L-11,25 L-20,31 L-27,31 L-31,29 L-33,30 L-33,22 L-31,20 L-26,24 L-20,24 L-17,23 L-15,18 L-9,7 L-2,1 Z " fill="#D21C4B" transform="translate(691,399)"/>
<path d="M0,0 L9,0 L7,4 L4,8 L2,15 L-2,18 L-9,18 L-12,15 L-12,10 L-20,11 L-24,12 L-20,7 L-10,2 Z " fill="#002B65" transform="translate(592,420)"/>
<path d="M0,0 L2,0 L7,5 L17,12 L21,14 L21,16 L13,20 L5,27 L3,27 L0,18 Z " fill="#005594" transform="translate(388,653)"/>
<path d="M0,0 L15,0 L20,3 L22,6 L22,15 L19,14 L14,8 L6,7 L-14,7 L-11,4 Z " fill="#00265F" transform="translate(591,404)"/>
<path d="M0,0 L4,2 L15,15 L19,22 L13,20 L-3,12 L-9,9 L-4,4 Z " fill="#005594" transform="translate(655,573)"/>
<path d="M0,0 L2,1 L-5,8 L-16,13 L-26,13 L-30,12 L-28,7 L-22,4 L-5,2 Z " fill="#F3B67F" transform="translate(707,440)"/>
<path d="M0,0 L2,0 L2,19 L4,20 L1,22 L-5,22 L-11,17 L-9,10 Z " fill="#F7B87F" transform="translate(670,402)"/>
<path d="M0,0 L5,0 L7,7 L10,0 L15,0 L15,14 L12,14 L11,8 L9,13 L5,12 L4,9 L3,14 L0,14 Z " fill="#D4D2C2" transform="translate(572,683)"/>
</svg>
