<?xml version="1.0" encoding="UTF-8" standalone="no"?>
<!-- Created with Inkscape (http://www.inkscape.org/) -->

<svg
   width="250.00084"
   height="350"
   viewBox="0 0 66.146056 92.604167"
   version="1.1"
   id="svg1"
   xmlns:xlink="http://www.w3.org/1999/xlink"
   xmlns="http://www.w3.org/2000/svg"
   xmlns:svg="http://www.w3.org/2000/svg">
  <defs
     id="defs1">
    <linearGradient
       id="linearGradient14686">
      <stop
         style="stop-color:#ffffff;stop-opacity:1;"
         offset="0"
         id="stop14682" />
      <stop
         style="stop-color:#ffffff;stop-opacity:0;"
         offset="0.13"
         id="stop14690" />
      <stop
         style="stop-color:#ffffff;stop-opacity:1;"
         offset="0.25"
         id="stop14692" />
      <stop
         style="stop-color:#ffffff;stop-opacity:0;"
         offset="0.37"
         id="stop14694" />
      <stop
         style="stop-color:#ffffff;stop-opacity:1;"
         offset="0.5"
         id="stop14684" />
      <stop
         style="stop-color:#ffffff;stop-opacity:0;"
         offset="0.63"
         id="stop19042" />
      <stop
         style="stop-color:#ffffff;stop-opacity:1;"
         offset="0.74883318"
         id="stop19044" />
      <stop
         style="stop-color:#ffffff;stop-opacity:0;"
         offset="0.87"
         id="stop19046" />
      <stop
         style="stop-color:#ffffff;stop-opacity:1;"
         offset="1"
         id="stop19048" />
    </linearGradient>
    <rect
       x="942"
       y="164"
       width="23"
       height="55"
       id="rect5833" />
    <rect
       x="1065.6099"
       y="10.606602"
       width="49.019554"
       height="31.213203"
       id="rect2178" />
    <linearGradient
       xlink:href="#linearGradient14686"
       id="linearGradient16274"
       gradientUnits="userSpaceOnUse"
       x1="353.14197"
       y1="213.87842"
       x2="413.39664"
       y2="163.0441"
       gradientTransform="translate(-350.35946,-124.29117)"
       spreadMethod="pad" />
  </defs>
  <path
     id="rect200"
     style="fill:#e81828;stroke-width:0.100889"
     d="m 1.05e-5,0 h 5.29166 V 92.604164 H 1.05e-5 Z" />
  <path
     id="rect200-0"
     style="fill:#e81828;stroke-width:0.0946423"
     d="m 60.854181,11.112497 h 5.29166 v 81.491667 h -5.29166 z" />
  <path
     id="rect55"
     style="display:inline;fill:#ffd000;stroke-width:0.0870195"
     d="M 1.05e-5,0 H 66.145841 V 11.1125 H 1.05e-5 Z" />
  <path
     id="rect202"
     style="display:inline;fill:#002d72;fill-opacity:1;stroke-width:0.103559"
     d="m 5e-7,0 v 12.7 h 0.52917 40.2337205 L 53.445831,0.01757 V 0 H 0.5291705 Z" />
  <path
     id="rect201"
     style="fill:#e81828;fill-opacity:1;stroke-width:0.115386"
     d="M 5e-7,0 V 14.552083 H 37.028231 L 51.580321,0 Z" />
  <path
     id="rect218"
     style="display:inline;fill:#002d72;fill-opacity:1;stroke-width:0.0950331"
     d="m 0.7505669,12.173933 -0.7503421,0.750343 3.8e-6,2.115116 2.8654583,-2.865459 z m 2.70268,0 -3.2902386,3.290239 h 2.11512 l 3.2902386,-3.290239 z m 2.70268,0 -3.2902386,3.290239 h 2.11511 l 3.2902386,-3.290239 z m 2.70267,0 -3.2902386,3.290239 h 2.1151196 l 3.2902391,-3.290239 z m 2.7026801,0 -3.2902391,3.290239 h 2.1151201 l 3.290239,-3.290239 z m 2.70268,0 -3.290239,3.290239 h 2.11512 l 3.290239,-3.290239 z m 2.70268,0 -3.290239,3.290239 h 2.11511 l 3.290239,-3.290239 z m 2.70267,0 -3.290239,3.290239 h 2.11512 l 3.290239,-3.290239 z m 2.70268,0 -3.290239,3.290239 h 2.11512 l 3.290239,-3.290239 z m 2.70268,0 -3.290239,3.290239 h 2.11511 l 3.290239,-3.290239 z m 2.70268,0 -3.290239,3.290239 h 2.11511 l 3.290239,-3.290239 z m 2.70267,0 -3.290239,3.290239 h 2.11512 l 3.290239,-3.290239 z" />
  <path
     id="rect218-8"
     style="display:inline;fill:#002d72;fill-opacity:1;stroke-width:0.0950331"
     d="m 64.471741,35.506361 v 2.1146 l 1.67432,1.674316 v -2.114599 z m 0,2.702161 v 2.115116 l 1.67432,1.674317 v -2.115117 z m 0,2.702677 v 2.115117 l 1.67432,1.674833 v -2.115633 z m 0,2.702678 v 2.115633 l 1.67432,1.673799 v -2.115116 z m 0,2.703194 v 2.114599 l 1.67432,1.674317 V 47.99087 Z m 0,2.70216 v 2.115117 l 1.67432,1.674316 v -2.115116 z m 0,2.702678 v 2.115116 l 1.67432,1.674317 v -2.115117 z m 0,2.702677 v 2.115117 l 1.67432,1.674316 v -2.115116 z m 0,2.702678 v 2.115116 l 1.67432,1.674316 V 58.80158 Z m 0,2.702677 v 2.115116 l 1.67432,1.674317 v -2.115116 z m 0,2.702678 v 2.115116 l 1.67432,1.674833 v -2.115633 z m 0,2.702677 v 2.115116 l 1.67432,1.674317 v -2.1146 z" />
  <path
     id="rect3"
     style="fill:#ffd000;fill-opacity:1;stroke-width:0.0836697"
     d="m 54.909631,77.084899 v 0.0035 l 11.23421,11.234214 h 0.002 V 77.084899 Z" />
  <path
     id="rect243"
     style="fill:#e81828;stroke-width:0.149881"
     d="M 2.305e-4,71.4375 V 92.604167 H 66.146061 V 88.224589 L 49.358971,71.4375 Z" />
  <path
     id="use239-7"
     style="display:inline;fill:#002d72;fill-opacity:1;stroke-width:0.0950331"
     d="m 35.604251,69.982809 3.29024,3.290238 h 2.11512 l -3.29024,-3.290238 z m 2.70268,0 3.29024,3.290238 h 2.11512 l -3.29024,-3.290238 z m 2.70268,0 3.29024,3.290238 h 2.11511 l -3.29023,-3.290238 z" />
  <path
     id="rect1"
     style="fill:#ffd000;fill-opacity:1;stroke-width:0.0647448"
     d="m 5e-7,66.316651 v 7.9375 H 39.687501 v -0.04651 l -7.89099,-7.890991 z" />
  <text
     xml:space="preserve"
     style="font-size:3.95446px;font-family:Papyrus;-inkscape-font-specification:'Papyrus, Normal';text-align:center;text-anchor:middle;fill:#eeff38;stroke:#000000;stroke-width:0"
     x="17.995153"
     y="5.918088"
     id="text1297"><tspan
       style="font-style:normal;font-variant:normal;font-weight:normal;font-stretch:normal;font-size:3.95446px;font-family:Arial;-inkscape-font-specification:Arial;fill:#ffffff;fill-opacity:1;stroke:#ffffff;stroke-width:0;stroke-opacity:1"
       x="17.995153"
       y="5.918088"
       id="tspan2145">Hiroshi <tspan
   style="font-style:normal;font-variant:normal;font-weight:bold;font-stretch:normal;font-family:Arial;-inkscape-font-specification:'Arial Bold';fill:#ffffff;fill-opacity:1;stroke:#ffffff;stroke-width:0;stroke-opacity:1"
   id="tspan2264">Nakamura</tspan></tspan></text>
  <path
     id="rect2"
     style="fill:#ffd000;stroke-width:0.035477"
     d="M 2.305e-4,9.5746091 V 10.500651 H 35.381011 l 0.92553,-0.9260419 z" />
  <text
     xml:space="preserve"
     transform="matrix(0.28641921,0,0,0.28641921,-254.50594,-1.6653798)"
     id="text2176"
     style="font-style:normal;font-variant:normal;font-weight:bold;font-stretch:normal;font-size:26.6667px;font-family:Arial;-inkscape-font-specification:'Arial Bold';text-align:center;white-space:pre;shape-inside:url(#rect2178);display:inline;fill:#000000;fill-opacity:1;stroke:#000000;stroke-width:0"><tspan
       x="1075.2884"
       y="34.62757"
       id="tspan21240">48</tspan></text>
  <g
     id="g4776"
     transform="matrix(0.98897453,0,0,0.97233105,-224.76815,2.4428357)">
    <path
       id="rect4020"
       style="fill:#ffffff;stroke:#000000;stroke-width:0.109732;stroke-dasharray:none"
       d="m 233.9229,66.554238 -2.7492,1.57449 2.68347,1.561806 2.74919,-1.574461 z m -2.76015,1.588419 v 3.210184 l 2.6887,1.573074 v -3.210214 z m 5.43722,2.9e-5 -2.73021,1.573044 v 3.210128 l 2.73021,-1.573017 z" />
    <text
       xml:space="preserve"
       style="font-style:normal;font-variant:normal;font-weight:bold;font-stretch:normal;font-size:2.54028px;font-family:Arial;-inkscape-font-specification:'Arial Bold';text-align:center;text-anchor:middle;fill:#ffffff;fill-opacity:1;stroke:#000000;stroke-width:0.0476306;stroke-dasharray:none"
       x="232.51659"
       y="-62.814816"
       id="text4216"
       transform="skewY(30)"><tspan
         id="tspan4214"
         style="fill:#000000;fill-opacity:1;stroke-width:0.0476306;stroke-dasharray:none"
         x="232.51659"
         y="-62.814816">1</tspan></text>
    <text
       xml:space="preserve"
       style="font-style:normal;font-variant:normal;font-weight:bold;font-stretch:normal;font-size:2.54028px;font-family:Arial;-inkscape-font-specification:'Arial Bold';text-align:center;text-anchor:middle;fill:#ffffff;fill-opacity:1;stroke:#000000;stroke-width:0.0476306;stroke-dasharray:none"
       x="58.004555"
       y="203.9901"
       id="text4216-4"
       transform="matrix(0.99999996,-0.57735029,0.86602541,0.5,0,0)"><tspan
         id="tspan4214-5"
         style="fill:#000000;fill-opacity:1;stroke-width:0.0476306;stroke-dasharray:none"
         x="58.004555"
         y="203.9901">1</tspan></text>
    <text
       xml:space="preserve"
       style="font-style:normal;font-variant:normal;font-weight:bold;font-stretch:normal;font-size:2.54028px;font-family:Arial;-inkscape-font-specification:'Arial Bold';text-align:center;text-anchor:middle;fill:#ffffff;fill-opacity:1;stroke:#000000;stroke-width:0.0476306;stroke-dasharray:none"
       x="235.41888"
       y="207.30055"
       id="text4216-1"
       transform="skewY(-30)"><tspan
         id="tspan4214-6"
         style="fill:#000000;fill-opacity:1;stroke-width:0.0476306;stroke-dasharray:none"
         x="235.41888"
         y="207.30055">1</tspan></text>
  </g>
  <g
     id="g4789"
     transform="matrix(1.0174564,0,0,1.0174564,-231.12473,-0.5311424)">
    <circle
       style="fill:#009400;fill-opacity:1;stroke:#000000;stroke-width:0.264583;stroke-dasharray:none"
       id="path4755"
       cx="242.62292"
       cy="69.585419"
       r="2.9882352" />
    <path
       id="path4619"
       style="fill:none;stroke:#ffffff;stroke-width:0.762;stroke-opacity:1"
       d="m 243.90386,70.457259 a 1.6261549,1.6261549 0 0 1 -1.91054,0.662998 1.6261549,1.6261549 0 0 1 -1.07888,-1.710488 1.6261549,1.6261549 0 0 1 1.42136,-1.43857 1.6261549,1.6261549 0 0 1 1.72335,1.058212" />
    <path
       id="path4745"
       style="fill:none;stroke:#ffffff;stroke-width:0.698608;stroke-opacity:1"
       d="m 244.19222,69.418828 -0.38638,-0.183515 0.5638,-0.206533 z" />
  </g>
  <g
     id="g20722"
     style="display:inline"
     transform="translate(-3.0601371,-2.1329089)">
    <rect
       style="fill:#ffef00;fill-opacity:1;stroke:#000000;stroke-width:0.224989;stroke-dasharray:none;stroke-opacity:1"
       id="rect4843"
       width="6.1250114"
       height="6.1250114"
       x="25.301628"
       y="69.339394"
       rx="0.57943165"
       ry="0.57943165" />
    <text
       xml:space="preserve"
       transform="matrix(0.22086929,0,0,0.22086929,-180.70207,32.990687)"
       id="text5831"
       style="font-style:normal;font-variant:normal;font-weight:bold;font-stretch:normal;font-size:26.6667px;font-family:Arial;-inkscape-font-specification:'Arial Bold';text-align:center;white-space:pre;shape-inside:url(#rect5833);display:inline;fill:#ffef00;fill-opacity:1;stroke:#000000;stroke-width:1;stroke-dasharray:none;stroke-opacity:1"><tspan
         x="946.08463"
         y="188.02015"
         id="tspan21244"><tspan
           style="fill:#000000;stroke:none"
           id="tspan21242">1</tspan></tspan></text>
    <text
       xml:space="preserve"
       style="font-style:normal;font-variant:normal;font-weight:bold;font-stretch:normal;font-size:4.65317px;font-family:Arial;-inkscape-font-specification:'Arial Bold';text-align:center;text-anchor:middle;fill:#000000;fill-opacity:1;stroke:none;stroke-width:0.174494;stroke-dasharray:none;stroke-opacity:1"
       x="27.058163"
       y="73.482231"
       id="text6565"><tspan
         id="tspan6563"
         style="stroke-width:0.174494"
         x="27.058163"
         y="73.482231">+</tspan></text>
    <text
       xml:space="preserve"
       style="font-style:normal;font-variant:normal;font-weight:bold;font-stretch:normal;font-size:6.18591px;font-family:Arial;-inkscape-font-specification:'Arial Bold';text-align:center;text-anchor:middle;fill:#000000;fill-opacity:1;stroke:none;stroke-width:0.231972;stroke-dasharray:none;stroke-opacity:1"
       x="19.220528"
       y="104.72086"
       id="text6565-4"
       transform="scale(1.3967369,0.71595445)"><tspan
         id="tspan6563-1"
         style="stroke-width:0.231972"
         x="19.220528"
         y="104.72086">-</tspan></text>
  </g>
  <path
     id="rect16272"
     style="opacity:0.8;mix-blend-mode:overlay;fill:url(#linearGradient16274);fill-opacity:1;stroke:#000000;stroke-width:0"
     d="M 5e-7,5e-7 V 11.1125 v 1.587501 1.852081 51.764798 7.9375 18.34978 H 66.14583 v -4.38009 -11.13886 -10.17767 -2.1146 -0.58756 -2.115644 -0.58756 -2.11511 -0.58756 -2.11512 -0.58756 -2.11512 -0.58756 -2.11512 -0.58756 -2.11511 -0.58756 -2.11512 -0.58756 -2.11512 -0.58704 -2.11564 -0.58756 -2.11511 -0.58756 V 35.06349 11.1125 5e-7 Z M 42.35038,11.1125 H 60.85416 V 77.08521 H 55.00697 L 49.35926,71.43749 H 44.5797 L 43.12501,69.9828 H 41.0099 l 1.45469,1.45469 h -0.58756 l -1.4547,-1.45469 h -2.11511 l 1.45469,1.45469 H 39.17435 L 37.71966,69.9828 h -2.11512 l 1.45469,1.45469 H 36.91712 L 31.7965,66.31688 H 5.2916605 V 15.153592 l 0.60152,-0.60151 h 0.58756 l -0.91209,0.91209 h 2.11511 l 0.91209,-0.91209 h 0.5875596 l -0.9120796,0.91209 H 10.38644 l 0.91209,-0.91209 h 0.58756 l -0.91209,0.91209 h 2.11512 l 0.91209,-0.91209 h 0.58756 l -0.91209,0.91209 h 2.11512 l 0.91209,-0.91209 h 0.58756 l -0.91209,0.91209 h 2.11511 l 0.91209,-0.91209 h 0.58756 l -0.91209,0.91209 h 2.11512 l 0.91209,-0.91209 h 0.58756 l -0.91209,0.91209 h 2.11512 l 0.91209,-0.91209 h 0.58756 l -0.91209,0.91209 h 2.11512 l 0.91209,-0.91209 h 0.58756 l -0.91209,0.91209 h 2.11511 l 0.91209,-0.91209 h 6.81096 l 1.85208,-1.852081 h 1.88257 z" />
  <path
     style="fill:#ffd000;fill-opacity:1;stroke:#000000;stroke-width:0"
     id="path19114-1"
     d="m 274.76844,40.775703 -15.9704,14.014389 2.49087,21.101002 -18.2636,-10.858066 -19.29853,8.889518 4.68287,-20.725042 -14.41801,-15.606978 21.15778,-1.950715 10.38771,-18.535161 8.39335,19.519435 z"
     transform="matrix(0.06799823,-0.00356319,0.00356319,0.06799823,46.742981,25.731555)" />
  <path
     style="fill:#ffd000;fill-opacity:1;stroke:#000000;stroke-width:0"
     id="path19114-6"
     d="m 274.76844,40.775703 -15.9704,14.014389 2.49087,21.101002 -18.2636,-10.858066 -19.29853,8.889518 4.68287,-20.725042 -14.41801,-15.606978 21.15778,-1.950715 10.38771,-18.535161 8.39335,19.519435 z"
     transform="matrix(0.06799823,-0.00356319,0.00356319,0.06799823,46.74298,20.228033)" />
  <path
     style="fill:#ffd000;fill-opacity:1;stroke:#000000;stroke-width:0"
     id="path19114"
     d="m 274.76844,40.775703 -15.9704,14.014389 2.49087,21.101002 -18.2636,-10.858066 -19.29853,8.889518 4.68287,-20.725042 -14.41801,-15.606978 21.15778,-1.950715 10.38771,-18.535161 8.39335,19.519435 z"
     transform="matrix(0.06799823,-0.00356319,0.00356319,0.06799823,46.74298,14.724512)" />
</svg>
