<?xml version="1.0" encoding="UTF-8" standalone="no"?>
<svg
   viewBox="0 0 183.80006 246.7"
   version="1.1"
   id="svg6"
   sodipodi:docname="CWS-D.svg"
   width="183.80006"
   height="246.7"
   xmlns:inkscape="http://www.inkscape.org/namespaces/inkscape"
   xmlns:sodipodi="http://sodipodi.sourceforge.net/DTD/sodipodi-0.dtd"
   xmlns="http://www.w3.org/2000/svg"
   xmlns:svg="http://www.w3.org/2000/svg">
  <defs
     id="defs10" />
  <sodipodi:namedview
     id="namedview8"
     pagecolor="#ffffff"
     bordercolor="#666666"
     borderopacity="1.0"
     inkscape:pageshadow="2"
     inkscape:pageopacity="0.0"
     inkscape:pagecheckerboard="0" />
  <title
     id="title2">Chicago White Sox cap on dark logo</title>
  <path
     fill="#ffffff"
     d="m 172.03007,239.64 h -2.61 v 7.06 h -1.75 v -7.06 h -2.61 v -1.56 h 6.96 v 1.56 z m 11.77,7.06 h -1.74 v -6.85 h -0.06 l -2.49,6.85 h -1.7 l -2.42,-6.85 h -0.03 v 6.85 h -1.76 v -8.62 h 3.06 l 1.99,5.64 h 0.03 l 2.09,-5.64 h 3.02 v 8.62 z m -32.13,-25.35 -13.62,-21.63 24.55,-30.85 8.15,6.58 -0.02,-17.56 -10.99,-9.9 -30.4,37.83 -4.29,-6.8 c 3.71,-2.78 8.49,-6.35 9.01,-6.62 0.89,-0.44 3.08,-1.75 4.18,-1.75 0.98,0 -1.54,-4.41 -8.79,-4.39 l -0.03,-38.87 4.16,-4.6 c 0,0 -5.05,0.79 -7.46,0.06 -0.51,-0.16 -1.37,-0.57 -2.42,-1.12 1.37,-2.16 2.59,-4.64 3.5,-7.5 4.93,-15.619996 1.44,-30.649996 -10.13,-39.259996 -8.34,-6.2 -42.399999,-23.49 -42.399999,-23.49 0,0 -20.64,-10.09 -22.87,-12.3 -1.58,-1.58 -4.83,-4.06 -4.84,-11.84 0,-4.66 5.18,-9.79 7.41,-10.85 3.57,-1.69 4.75,-2.48 11.98,-2.6 4.08,-0.05 7.88,0.92 8.39,0.96 4.51,0.47 15.16,3.99 20.65,11.42 2.12,2.1 2.53,8.27 2.53,8.27 l 8.579999,5.48 18.64,-24.4 -10.11,-6.7899999 c -2.85,3.0599999 -8.34,3.2699999 -10.56,2.1899999 -2.18,-1.0899999 -21.029999,-7.9399999 -23.699999,-8.7899999 -5.06,-1.62999999 -16.05,-2.80999999 -21.96,-1.92999999 -5.94,0.88999999 -15.66,2.68999999 -23.27,10.76999989 -8.9,9.47 -9,17.04 -8.99,21.09 0.01,6.38 1.67,14.81 8.8,21.92 10.29,10.29 25.93,16.69 29.47,18.63 6.23,3.46 25.92,13.75 28.78,15.38 12.079999,7.03 16.679999,14.499996 15.389999,23.939996 -0.06,0.46 -0.22,0.9 -0.31,1.34 -5.3,-3.11 -12.739999,-7.78 -15.729999,-10.77 0,0 -1.82,1.93 -2.98,3.06 l -8.78,6.62 c 1.07,-4.26 1.17,-11.58 1,-12.319996 -0.23,-0.85 -0.88,-7.89 -7.04,-12.27 -4.18,-2.98 -13.52,-8.56 -21.55,-12.51 -3.44,-1.69 -14.63,-8.43 -19.99,-12.9 0,0 -9.23,-8.59 -10.66,-13.86 -2.75,-6.03 -2.88,-20.32 -1.45,-21.74 0,0 -3.51,3.98 -5.91,11.87 -1.18,3.85 -1.97,8.89 -1.97,12.3 0,5.7 1,15.7 7.26,24.14 2.77,3.73 7.11,7.98 11.71,10.98 5.58,3.69 11.23,5.86 11.61,6.14 1.53,1.09 16.03,7.2 17.35,7.85 1.32,0.659996 10.63,5.459996 10.99,5.589996 2.86,1.04 6.47,4.91 7.56,7.55 l -15,11.28 c 0,0 0.65,1.2 0.66,3.06 v 1.44 c -2.03,-0.68 -4.1,-1.26 -6.15,-1.61 -9.88,-1.66 -15.9,-1.56 -23.72,0.36 -8.68,2.16 -17.79,5.68 -26.3600003,14.23 -9.65000003,9.7 -9.530000033896,16.2 -9.530000033896,16.2 L 9.6500707,152.35 c 8.0700003,-4.56 18.7200003,-7.3 26.2300003,-7.3 18.14,-0.01 27.39,5.21 29.88,8.1 l 0.02,17.35 c 0,3.44 -1.04,3.9 -1.8,4.53 -0.3,0.27 -0.57,0.3 -1.61,1.01 0,0 1.33,0.49 1.66,0.82 0.87,0.65 35.06,21.25 35.06,21.25 l 13.249999,-9.71 6.55,10.43 -18.14,22.58 -12.529999,-11.4 0.03,21.29 14.279999,13.17 25.18,-31.67 20.72,32.94 16.67,-13.41 v -21.1 l -13.41,10.12 z M 93.240071,122.49 c 2.02,1.74 4.47,3.35 6.919999,4.77 -0.05,0.05 -0.189999,0.16 -0.189999,0.16 0,0 -8.82,7.53 -14.45,8.43 v -7.67 c 0.11,-0.1 7.72,-5.69 7.72,-5.69 m 5.75,55.55 c 0,-0.13 -13.49,-8.34 -13.49,-8.34 0.03,0 0.03,-9.06 0.03,-18.74 v -1.84 c 5.76,-1.12 19.399999,-7.64 26.609999,-14.76 0.06,1.07 0.07,6.36 0.07,12.44 0,3.95 -0.01,8.13 -0.01,11.75 l -8.25,-13.1 -12.769999,9.09 v 16.22 l 7.08,-4.67 5.229999,8.31 c -2.47,2 -4.509999,3.66 -4.509999,3.66"
     id="path4" />
</svg>
