<?xml version="1.0" encoding="UTF-8" standalone="no"?>
<svg
   viewBox="0 0 201.49701 219.92999"
   version="1.1"
   id="svg10"
   sodipodi:docname="MIL-D.svg"
   width="201.49701"
   height="219.92999"
   xmlns:inkscape="http://www.inkscape.org/namespaces/inkscape"
   xmlns:sodipodi="http://sodipodi.sourceforge.net/DTD/sodipodi-0.dtd"
   xmlns="http://www.w3.org/2000/svg"
   xmlns:svg="http://www.w3.org/2000/svg">
  <defs
     id="defs14" />
  <sodipodi:namedview
     id="namedview12"
     pagecolor="#ffffff"
     bordercolor="#666666"
     borderopacity="1.0"
     inkscape:pageshadow="2"
     inkscape:pageopacity="0.0"
     inkscape:pagecheckerboard="0" />
  <title
     id="title2">Milwaukee Brewers cap on dark logo</title>
  <path
     fill="#ffc72c"
     d="m 201.497,64.08 v 27.74 c 0,23.15 -3.79,37.18 -21.97,75.62 -19.14,40.47 -42.75,52.49 -70.99,52.49 -18.569997,0 -36.029997,-6.12 -50.139997,-17.42 l -0.13,0.05 -3.15,-2.82 -0.58,-0.51 c -4,-3.58 -7.42,-7.43 -10.36,-11.38 -0.25,-0.33 -0.49,-0.65 -0.73,-0.99 -0.04,-0.05 -0.09,-0.11 -0.12,-0.17 -0.18,-0.24 -0.35,-0.48 -0.52,-0.72 a 81,81 0 0 1 -4.65,-7.38 c -0.16,-0.27 -0.32,-0.55 -0.46,-0.82 -4.65,-8.37 -7.71,-16.7 -10.29,-23.67 -0.74,-1.99 -1.43,-3.87 -2.11,-5.62 -5.33,-13.69 -15.6499999,-40.45 -20.6399999,-53.93 -5.18999999,-14 -5.99,-23.94 -2.66,-33.23 3.56,-9.95 11.5199999,-17.91 22.3799999,-26.79 10.88,-8.9 20.21,-16.29 33.11,-25.61 8.08,-5.83 16.74,-8.92 25.06,-8.92 3.52,0 6.85,0.57 9.9,1.68 0.55,0.2 1.15,0.42 1.94,0.72 2.8,1.06 5.29,2.5 7.439997,4.27 0.22,-0.13 0.43,-0.25 0.64,-0.38 5.93,-3.46 12.58,-5.29 19.24,-5.29 5.27,0 10.42,1.14 14.93,3.29 0.97,0.47 1.54,0.75 2.19,1.1 0.32,0.16 0.66,0.34 1.13,0.59 3.54,1.81 6.58,4.13 9.04,6.83 3.94,-1.32 7.76,-1.99 11.41,-1.99 5.56,0 10.75,1.52 15.45,4.51 l 1.12,0.71 c 2.14,1.37 3.23,2.05 4.89,3.22 12.73,8.81 19.62,18.56 19.62,44.82"
     id="path4" />
  <path
     fill="#13294b"
     d="m 177.177,26.05 c -1.79,-1.24 -2.83,-1.89 -5.75,-3.75 -5.67,-3.62 -13.19,-4.81 -23.45,-0.22 -0.68,0.3 -1.31,0.58 -1.94,0.86 -2.28,-4.68 -6.33,-7.81 -9.83,-9.6 -1.44,-0.74 -1.83,-0.97 -3.13,-1.59 -6.97,-3.33 -17.03,-3.81 -26.44,1.68 -1.89,1.1 -4.37,2.57 -6.49,3.82 -2.169997,-3.71 -5.519997,-5.94 -8.659997,-7.12 -0.75,-0.28 -1.33,-0.49 -1.86,-0.68 -6.94,-2.53 -17.09,-1.19 -27.29,6.17 -12.15,8.78 -21.06,15.76 -32.71,25.3 -21.3099999,17.44 -25.8399999,27.46 -17.2,50.77 4.75,12.81 14.82,38.96 20.59,53.81 3.31,8.51 6.77,19.54 13.01,30.19 0.57,0.97 1.16,1.94 1.79,2.91 0.16,0.25 0.34,0.5 0.5,0.75 2.84,4.31 6.21,8.47 10.27,12.34 0.32,0.31 0.65,0.63 0.98,0.93 0.17,0.15 0.32,0.31 0.49,0.46 l 0.02,-0.02 c 12.72,11.58 29.56,18.62 48.469997,18.62 34.69,0 62.81,-28.13 62.81,-62.8 v -0.07 c 0,-33.11 -26.84,-59.95 -59.95,-59.95 -17.989997,0 -36.059997,10.4 -46.719997,26.8 -4.53,-11.09 -14.23,-34.82 -21.53,-52.6 -3.93,-9.57 -3.03,-14.41 2.98,-19.98 3.07,-2.84 6.8,-5.69 10.94,-8.5 4.23,-2.87 9,-1.18 9,4.42 v 59.25 c 9.66,-9.75 21.51,-16.1 36.689997,-18.9 l -0.23,-48.91 c 1.08,-0.67 2.09,-1.29 2.85,-1.73 3.87,-2.25 6.64,0.24 6.64,3.85 v 45.53 c 0.24,0 0.48,-0.01 0.72,-0.01 12.79,0 24.78,3.48 35.1,9.51 V 36.55 c 0.97,-0.39 1.88,-0.76 2.58,-1.04 3.88,-1.54 6.5,0.86 6.5,4.37 0,3.51 -0.27,54.11 -0.27,54.11 14.25,11.75 23.5,29.05 24.95,48.56 6.8,-14.47 11.64,-27.94 11.64,-50.73 V 64.08 c 0,-23.1 -5.24,-30.54 -16.06,-38.03 m -66.33,87.41 c 20,0 36.2,16.21 36.2,36.2 0,19.99 -16.21,36.2 -36.2,36.2 -19.989997,0 -36.199997,-16.21 -36.199997,-36.2 0,-19.99 16.21,-36.2 36.199997,-36.2"
     id="path6" />
  <path
     fill="#ffffff"
     d="m 177.947,199.68 h -2.63 v 7.18 h -1.78 v -7.18 h -2.63 v -1.56 h 7.04 z m 11.96,7.18 h -1.78 v -6.95 h -0.05 l -2.53,6.95 h -1.73 l -2.43,-6.95 h -0.05 v 6.95 h -1.79 v -8.74 h 3.1 l 2.03,5.7 h 0.05 l 2.12,-5.7 h 3.06 z M 83.397003,149.67 c 0,-6.57 2.31,-12.6 6.17,-17.34 7.68,10.23 7.68,24.43 0,34.67 -3.86,-4.74 -6.17,-10.76 -6.17,-17.33 m 10.97,21.95 c 10.099997,-12.84 10.099997,-31.08 0,-43.92 4.59,-3.46 10.299997,-5.52 16.479997,-5.52 6.18,0 11.89,2.06 16.48,5.52 -10.1,12.84 -10.1,31.08 0,43.92 a 27.3,27.3 0 0 1 -16.48,5.52 c -6.18,0 -11.889997,-2.06 -16.479997,-5.52 M 132.137,167 c -7.68,-10.23 -7.68,-24.43 0,-34.67 3.86,4.74 6.18,10.77 6.18,17.34 0,6.57 -2.32,12.6 -6.18,17.33"
     id="path8" />
</svg>
